<mxfile host="app.diagrams.net" modified="2024-05-08T15:11:43.196Z" agent="Mozilla/5.0 (Macintosh; Intel Mac OS X 10_15_7) AppleWebKit/537.36 (KHTML, like Gecko) Chrome/124.0.0.0 Safari/537.36" version="24.2.2" etag="_5dpEfQxZ2R46_KPT47I" type="github">
  <diagram name="Page-1" id="U7EkIJsz_wqni2ABVY3l">
    <mxGraphModel>
      <root>
        <mxCell id="0" />
        <mxCell id="1" parent="0" />
      </root>
    </mxGraphModel>
  </diagram>
</mxfile>
